<?xml version="1.0" encoding="UTF-8" standalone="no"?>
<!-- Created with Inkscape (http://www.inkscape.org/) -->

<svg
   xmlns:dc="http://purl.org/dc/elements/1.1/"
   xmlns:cc="http://creativecommons.org/ns#"
   xmlns:rdf="http://www.w3.org/1999/02/22-rdf-syntax-ns#"
   xmlns:svg="http://www.w3.org/2000/svg"
   xmlns="http://www.w3.org/2000/svg"
   xmlns:xlink="http://www.w3.org/1999/xlink"
   xmlns:sodipodi="http://sodipodi.sourceforge.net/DTD/sodipodi-0.dtd"
   xmlns:inkscape="http://www.inkscape.org/namespaces/inkscape"
   width="256"
   height="128"
   id="svg2"
   version="1.1"
   inkscape:version="0.91 r13725"
   sodipodi:docname="icons.svg">
  <defs
     id="defs4">
    <linearGradient
       inkscape:collect="always"
       id="linearGradient3785">
      <stop
         style="stop-color:#ffffff;stop-opacity:1;"
         offset="0"
         id="stop3787" />
      <stop
         style="stop-color:#ffffff;stop-opacity:0;"
         offset="1"
         id="stop3789" />
    </linearGradient>
    <linearGradient
       inkscape:collect="always"
       id="linearGradient3775">
      <stop
         style="stop-color:#f9f9f9;stop-opacity:1;"
         offset="0"
         id="stop3777" />
      <stop
         style="stop-color:#f9f9f9;stop-opacity:0;"
         offset="1"
         id="stop3779" />
    </linearGradient>
    <filter
       inkscape:collect="always"
       id="filter3766"
       style="color-interpolation-filters:sRGB">
      <feGaussianBlur
         inkscape:collect="always"
         stdDeviation="0.087272873"
         id="feGaussianBlur3768" />
    </filter>
    <radialGradient
       inkscape:collect="always"
       xlink:href="#linearGradient3775"
       id="radialGradient3781"
       cx="45.244354"
       cy="1014.9988"
       fx="45.244354"
       fy="1014.9988"
       r="5.696125"
       gradientTransform="matrix(0.7799176,0.62588221,-1.3049271,1.6260817,1332.4502,-668.85119)"
       gradientUnits="userSpaceOnUse" />
    <radialGradient
       inkscape:collect="always"
       xlink:href="#linearGradient3785"
       id="radialGradient3791"
       cx="154.28188"
       cy="1016.321"
       fx="154.28188"
       fy="1016.321"
       r="8.788867"
       gradientTransform="matrix(0.65966413,0.13352557,-0.14016045,0.69244283,188.43124,287.86924)"
       gradientUnits="userSpaceOnUse" />
  </defs>
  <sodipodi:namedview
     id="base"
     pagecolor="#ffffff"
     bordercolor="#666666"
     borderopacity="1.0"
     inkscape:pageopacity="0.0"
     inkscape:pageshadow="2"
     inkscape:zoom="5.328125"
     inkscape:cx="128"
     inkscape:cy="64"
     inkscape:document-units="px"
     inkscape:current-layer="layer1"
     showgrid="false"
     inkscape:window-width="1871"
     inkscape:window-height="1056"
     inkscape:window-x="49"
     inkscape:window-y="24"
     inkscape:window-maximized="1" />
  <metadata
     id="metadata7">
    <rdf:RDF>
      <cc:Work
         rdf:about="">
        <dc:format>image/svg+xml</dc:format>
        <dc:type
           rdf:resource="http://purl.org/dc/dcmitype/StillImage" />
        <dc:title />
      </cc:Work>
    </rdf:RDF>
  </metadata>
  <g
     inkscape:groupmode="layer"
     id="layer2"
     inkscape:label="tiles"
     style="display:none"
     transform="translate(0,64)">
    <rect
       style="fill:#ac9393;fill-opacity:1;stroke:none"
       id="rect4321"
       width="64"
       height="64"
       x="0"
       y="0" />
    <rect
       y="0"
       x="128"
       height="64"
       width="64"
       id="rect4323"
       style="fill:#ac9393;fill-opacity:1;stroke:none" />
    <rect
       y="0"
       x="64"
       height="64"
       width="64"
       id="rect4325"
       style="fill:#f2f2f2;fill-opacity:1;stroke:none" />
    <rect
       style="fill:#f2f2f2;fill-opacity:1;stroke:none"
       id="rect4327"
       width="64"
       height="64"
       x="192"
       y="0" />
    <rect
       y="-64"
       x="-256"
       height="64"
       width="64"
       id="rect4329"
       style="fill:#ac9393;fill-opacity:1;stroke:none"
       transform="scale(-1,1)" />
    <rect
       style="fill:#ac9393;fill-opacity:1;stroke:none"
       id="rect4331"
       width="64"
       height="64"
       x="-128"
       y="-64"
       transform="scale(-1,1)" />
    <rect
       style="fill:#f2f2f2;fill-opacity:1;stroke:none"
       id="rect4333"
       width="64"
       height="64"
       x="-192"
       y="-64"
       transform="scale(-1,1)" />
    <rect
       y="-64"
       x="-64"
       height="64"
       width="64"
       id="rect4335"
       style="fill:#f2f2f2;fill-opacity:1;stroke:none"
       transform="scale(-1,1)" />
  </g>
  <g
     inkscape:label="Layer 1"
     inkscape:groupmode="layer"
     id="layer1"
     transform="translate(0,-924.36218)"
     style="display:inline">
    <path
       sodipodi:nodetypes="czzcsscc"
       inkscape:connector-curvature="0"
       id="path3805"
       d="m 12.4079,996.3625 c 0,0 39.20367,22.0952 40.03319,22.5162 0.82957,0.4202 0.93516,2.5521 0.11496,2.9676 -0.82016,0.4162 -40.14813,22.5162 -40.14813,22.5162 0,0 -1.52791,-0.669 -1.52791,-1.5 l 0,-45 c 0,-0.83098 1.52791,-1.5 1.52791,-1.5 z"
       style="fill:#ffffff;fill-opacity:1;stroke:none" />
    <g
       id="g4117"
       transform="matrix(0.8888889,0,0,0.8888889,332.05261,191.01112)"
       style="fill:#ffffff">
      <rect
         transform="matrix(0.6713856,0,0,0.6713856,-213.05467,233.00622)"
         y="1002.635"
         x="96.272713"
         height="17.454575"
         width="17.454575"
         id="rect3821"
         style="fill:#ffffff;stroke:none;filter:url(#filter3766)"
         rx="2"
         ry="2" />
      <rect
         ry="2"
         rx="2"
         style="fill:#ffffff;stroke:none;filter:url(#filter3766)"
         id="rect4079"
         width="17.454575"
         height="17.454575"
         x="96.272713"
         y="1002.635"
         transform="matrix(0.6713856,0,0,0.6713856,-199.05467,233.00622)" />
      <rect
         ry="2"
         rx="2"
         style="fill:#ffffff;stroke:none;filter:url(#filter3766)"
         id="rect4081"
         width="17.454575"
         height="17.454575"
         x="96.272713"
         y="1002.635"
         transform="matrix(0.6713856,0,0,0.6713856,-185.05467,233.00622)" />
      <rect
         transform="matrix(0.6713856,0,0,0.6713856,-171.05467,233.00622)"
         y="1002.635"
         x="96.272713"
         height="17.454575"
         width="17.454575"
         id="rect4083"
         style="fill:#ffffff;stroke:none;filter:url(#filter3766)"
         rx="2"
         ry="2" />
      <rect
         ry="2"
         rx="2"
         style="fill:#ffffff;stroke:none;filter:url(#filter3766)"
         id="rect4085"
         width="17.454575"
         height="17.454575"
         x="96.272713"
         y="1002.635"
         transform="matrix(0.6713856,0,0,0.6713856,-213.05467,247.00622)" />
      <rect
         transform="matrix(0.6713856,0,0,0.6713856,-199.05467,247.00622)"
         y="1002.635"
         x="96.272713"
         height="17.454575"
         width="17.454575"
         id="rect4087"
         style="fill:#ffffff;stroke:none;filter:url(#filter3766)"
         rx="2"
         ry="2" />
      <rect
         transform="matrix(0.6713856,0,0,0.6713856,-185.05467,247.00622)"
         y="1002.635"
         x="96.272713"
         height="17.454575"
         width="17.454575"
         id="rect4089"
         style="fill:#ffffff;stroke:none;filter:url(#filter3766)"
         rx="2"
         ry="2" />
      <rect
         ry="2"
         rx="2"
         style="fill:#ffffff;stroke:none;filter:url(#filter3766)"
         id="rect4091"
         width="17.454575"
         height="17.454575"
         x="96.272713"
         y="1002.635"
         transform="matrix(0.6713856,0,0,0.6713856,-171.05467,247.00622)" />
      <rect
         transform="matrix(0.6713856,0,0,0.6713856,-213.05467,261.00622)"
         y="1002.635"
         x="96.272713"
         height="17.454575"
         width="17.454575"
         id="rect4093"
         style="fill:#ffffff;stroke:none;filter:url(#filter3766)"
         rx="2"
         ry="2" />
      <rect
         ry="2"
         rx="2"
         style="fill:#ffffff;stroke:none;filter:url(#filter3766)"
         id="rect4095"
         width="17.454575"
         height="17.454575"
         x="96.272713"
         y="1002.635"
         transform="matrix(0.6713856,0,0,0.6713856,-199.05467,261.00622)" />
      <rect
         ry="2"
         rx="2"
         style="fill:#ffffff;stroke:none;filter:url(#filter3766)"
         id="rect4097"
         width="17.454575"
         height="17.454575"
         x="96.272713"
         y="1002.635"
         transform="matrix(0.6713856,0,0,0.6713856,-185.05467,261.00622)" />
      <rect
         transform="matrix(0.6713856,0,0,0.6713856,-171.05467,261.00622)"
         y="1002.635"
         x="96.272713"
         height="17.454575"
         width="17.454575"
         id="rect4099"
         style="fill:#ffffff;stroke:none;filter:url(#filter3766)"
         rx="2"
         ry="2" />
      <rect
         ry="2"
         rx="2"
         style="fill:#ffffff;stroke:none;filter:url(#filter3766)"
         id="rect4101"
         width="17.454575"
         height="17.454575"
         x="96.272713"
         y="1002.635"
         transform="matrix(0.6713856,0,0,0.6713856,-213.05467,275.00622)" />
      <rect
         transform="matrix(0.6713856,0,0,0.6713856,-199.05467,275.00622)"
         y="1002.635"
         x="96.272713"
         height="17.454575"
         width="17.454575"
         id="rect4103"
         style="fill:#ffffff;stroke:none;filter:url(#filter3766)"
         rx="2"
         ry="2" />
      <rect
         transform="matrix(0.6713856,0,0,0.6713856,-185.05467,275.00622)"
         y="1002.635"
         x="96.272713"
         height="17.454575"
         width="17.454575"
         id="rect4105"
         style="fill:#ffffff;stroke:none;filter:url(#filter3766)"
         rx="2"
         ry="2" />
      <rect
         ry="2"
         rx="2"
         style="fill:#ffffff;stroke:none;filter:url(#filter3766)"
         id="rect4107"
         width="17.454575"
         height="17.454575"
         x="96.272713"
         y="1002.635"
         transform="matrix(0.6713856,0,0,0.6713856,-171.05467,275.00622)" />
      <rect
         transform="matrix(0.6713856,0,0,0.6713856,-213.05467,275.00622)"
         y="1002.635"
         x="96.272713"
         height="17.454575"
         width="17.454575"
         id="rect4109"
         style="fill:#ffffff;stroke:none;filter:url(#filter3766)"
         rx="2"
         ry="2" />
      <rect
         ry="2"
         rx="2"
         style="fill:#ffffff;stroke:none;filter:url(#filter3766)"
         id="rect4111"
         width="17.454575"
         height="17.454575"
         x="96.272713"
         y="1002.635"
         transform="matrix(0.6713856,0,0,0.6713856,-199.05467,275.00622)" />
      <rect
         ry="2"
         rx="2"
         style="fill:#ffffff;stroke:none;filter:url(#filter3766)"
         id="rect4113"
         width="17.454575"
         height="17.454575"
         x="96.272713"
         y="1002.635"
         transform="matrix(0.6713856,0,0,0.6713856,-185.05467,275.00622)" />
      <rect
         transform="matrix(0.6713856,0,0,0.6713856,-171.05467,275.00622)"
         y="1002.635"
         x="96.272713"
         height="17.454575"
         width="17.454575"
         id="rect4115"
         style="fill:#ffffff;stroke:none;filter:url(#filter3766)"
         rx="2"
         ry="2" />
    </g>
    <g
       id="g4271"
       transform="translate(219.47652,128.76786)"
       style="fill:#ffffff">
      <rect
         ry="2"
         rx="2"
         style="fill:#ffffff;stroke:none;filter:url(#filter3766)"
         id="rect4149"
         width="17.454575"
         height="17.454575"
         x="96.272713"
         y="1002.635"
         transform="matrix(0.59678719,0,0,0.59678719,-134.58362,275.58214)" />
      <rect
         transform="matrix(0.59678719,0,0,0.59678719,-122.13917,275.58214)"
         y="1002.635"
         x="96.272713"
         height="17.454575"
         width="17.454575"
         id="rect4151"
         style="fill:#ffffff;stroke:none;filter:url(#filter3766)"
         rx="2"
         ry="2" />
      <rect
         transform="matrix(0.59678719,0,0,0.59678719,-109.69473,275.58214)"
         y="1002.635"
         x="96.272713"
         height="17.454575"
         width="17.454575"
         id="rect4153"
         style="fill:#ffffff;stroke:none;filter:url(#filter3766)"
         rx="2"
         ry="2" />
      <rect
         transform="matrix(0.59678719,0,0,0.59678719,-134.58362,288.02659)"
         y="1002.635"
         x="96.272713"
         height="17.454575"
         width="17.454575"
         id="rect4157"
         style="fill:#ffffff;stroke:none;filter:url(#filter3766)"
         rx="2"
         ry="2" />
      <rect
         ry="2"
         rx="2"
         style="fill:#ffffff;stroke:none;filter:url(#filter3766)"
         id="rect4159"
         width="17.454575"
         height="17.454575"
         x="96.272713"
         y="1002.635"
         transform="matrix(0.59678719,0,0,0.59678719,-122.13917,288.02659)" />
      <rect
         ry="2"
         rx="2"
         style="fill:#ffffff;stroke:none;filter:url(#filter3766)"
         id="rect4161"
         width="17.454575"
         height="17.454575"
         x="96.272713"
         y="1002.635"
         transform="matrix(0.59678719,0,0,0.59678719,-109.69473,288.02659)" />
      <rect
         ry="2"
         rx="2"
         style="fill:#ffffff;stroke:none;filter:url(#filter3766)"
         id="rect4165"
         width="17.454575"
         height="17.454575"
         x="96.272713"
         y="1002.635"
         transform="matrix(0.59678719,0,0,0.59678719,-134.58362,300.47103)" />
      <rect
         transform="matrix(0.59678719,0,0,0.59678719,-122.13917,300.47103)"
         y="1002.635"
         x="96.272713"
         height="17.454575"
         width="17.454575"
         id="rect4167"
         style="fill:#ffffff;stroke:none;filter:url(#filter3766)"
         rx="2"
         ry="2" />
      <rect
         transform="matrix(0.59678719,0,0,0.59678719,-109.69473,300.47103)"
         y="1002.635"
         x="96.272713"
         height="17.454575"
         width="17.454575"
         id="rect4169"
         style="fill:#ffffff;stroke:none;filter:url(#filter3766)"
         rx="2"
         ry="2" />
    </g>
    <g
       id="g4282"
       transform="translate(154.09034,194.06701)"
       style="fill:#ffffff">
      <rect
         transform="matrix(0.59678719,0,0,0.59678719,-126.97522,216.50522)"
         y="1002.635"
         x="96.272713"
         height="17.454575"
         width="17.454575"
         id="rect4191"
         style="fill:#ffffff;stroke:none;filter:url(#filter3766)"
         rx="2"
         ry="2" />
      <rect
         ry="2"
         rx="2"
         style="fill:#ffffff;stroke:none;filter:url(#filter3766)"
         id="rect4193"
         width="17.454575"
         height="17.454575"
         x="96.272713"
         y="1002.635"
         transform="matrix(0.59678719,0,0,0.59678719,-114.53077,216.50522)" />
      <rect
         ry="2"
         rx="2"
         style="fill:#ffffff;stroke:none;filter:url(#filter3766)"
         id="rect4199"
         width="17.454575"
         height="17.454575"
         x="96.272713"
         y="1002.635"
         transform="matrix(0.59678719,0,0,0.59678719,-126.97522,228.94967)" />
      <rect
         transform="matrix(0.59678719,0,0,0.59678719,-114.53077,228.94967)"
         y="1002.635"
         x="96.272713"
         height="17.454575"
         width="17.454575"
         id="rect4201"
         style="fill:#ffffff;stroke:none;filter:url(#filter3766)"
         rx="2"
         ry="2" />
    </g>
    <g
       id="g6071"
       style="fill:#ffffff"
       transform="matrix(0.97459875,0,0,0.97459875,172.83502,180.21625)">
      <path
         sodipodi:nodetypes="ccccccc"
         inkscape:connector-curvature="0"
         id="path6046"
         d="m -144.17875,773.11524 -14.7876,14.3205 -11.8773,0 0,17.8789 11.8773,-0.13378 14.7876,14.45428 z"
         style="fill:#ffffff;fill-opacity:1;stroke:none" />
      <path
         inkscape:connector-curvature="0"
         id="path6053"
         d="m -138.03555,770.78144 0,6.89856 c 7.71605,2.72776 13.24528,10.04499 13.24528,18.69519 0,8.6502 -5.52923,15.96743 -13.24528,18.69519 l 0,6.89856 c 11.40632,-2.95399 19.86792,-13.26393 19.86792,-25.59375 0,-12.32981 -8.4616,-22.63976 -19.86792,-25.59375 z"
         style="fill:#ffffff;fill-opacity:1;stroke:none" />
      <path
         inkscape:connector-curvature="0"
         id="path6062"
         d="m -138.03555,784.92353 0,22.90332 c 3.93938,-2.29522 6.62264,-6.56376 6.62264,-11.45166 0,-4.8879 -2.68326,-9.15643 -6.62264,-11.45166 z"
         style="fill:#ffffff;fill-opacity:1;stroke:none" />
    </g>
    <path
       sodipodi:nodetypes="ccccccc"
       inkscape:connector-curvature="0"
       id="path4339"
       d="m 96.31859,933.69339 -14.411976,13.95674 -11.575602,0 0,17.42476 11.575602,-0.13039 14.411976,14.08713 z"
       style="fill:#ffffff;fill-opacity:1;stroke:none" />
    <g
       id="g4435"
       transform="translate(-2.716,1.81066)">
      <path
         id="rect4165-1"
         d="m 138.716,930.55152 0,48 48,0 0,-48 -48,0 z m 2,2 44,0 0,44 -44,0 0,-44 z"
         style="fill:#ffffff;stroke:none"
         inkscape:connector-curvature="0" />
      <g
         transform="translate(2.3714652,-4.5486488)"
         id="g4387">
        <g
           id="g4344"
           transform="matrix(0.83333333,0,0,0.83333333,23.701805,142.60186)">
          <rect
             style="fill:#ffffff;stroke:none"
             id="rect4339"
             width="4"
             height="12"
             x="143.57127"
             y="959.39801" />
          <rect
             transform="matrix(0,1,-1,0,0,0)"
             y="-155.57127"
             x="959.39801"
             height="12"
             width="4"
             id="rect4342"
             style="fill:#ffffff;stroke:none" />
        </g>
        <g
           transform="matrix(0,-0.83333333,0.83333333,0,-656.15381,1095.7429)"
           id="g4349">
          <rect
             y="959.39801"
             x="143.57127"
             height="12"
             width="4"
             id="rect4351"
             style="fill:#ffffff;stroke:none" />
          <rect
             style="fill:#ffffff;stroke:none"
             id="rect4353"
             width="4"
             height="12"
             x="959.39801"
             y="-155.57127"
             transform="matrix(0,1,-1,0,0,0)" />
        </g>
        <g
           transform="matrix(0,0.83333333,-0.83333333,0,976.84287,822.45743)"
           id="g4355">
          <rect
             y="959.39801"
             x="143.57127"
             height="12"
             width="4"
             id="rect4357"
             style="fill:#ffffff;stroke:none" />
          <rect
             style="fill:#ffffff;stroke:none"
             id="rect4359"
             width="4"
             height="12"
             x="959.39801"
             y="-155.57127"
             transform="matrix(0,1,-1,0,0,0)" />
        </g>
        <g
           id="g4361"
           transform="matrix(-0.83333333,0,0,-0.83333333,296.98726,1775.5985)">
          <rect
             style="fill:#ffffff;stroke:none"
             id="rect4363"
             width="4"
             height="12"
             x="143.57127"
             y="959.39801" />
          <rect
             transform="matrix(0,1,-1,0,0,0)"
             y="-155.57127"
             x="959.39801"
             height="12"
             width="4"
             id="rect4365"
             style="fill:#ffffff;stroke:none" />
        </g>
      </g>
      <path
         style="fill:#ffffff;stroke:none"
         d="m 138.716,930.55152 0,48 48,0 0,-48 -48,0 z m 2,2 44,0 0,44 -44,0 0,-44 z"
         id="path4401"
         inkscape:connector-curvature="0" />
    </g>
    <g
       transform="matrix(0.83333333,0,0,0.83333333,79.35727,131.86387)"
       id="g4458">
      <rect
         y="959.39801"
         x="143.57127"
         height="12"
         width="4"
         id="rect4460"
         style="fill:#ffffff;stroke:none" />
      <rect
         style="fill:#ffffff;stroke:none"
         id="rect4462"
         width="4"
         height="12"
         x="959.39801"
         y="-155.57127"
         transform="matrix(0,1,-1,0,0,0)" />
    </g>
    <g
       id="g4464"
       transform="matrix(0,-0.83333333,0.83333333,0,-600.49834,1101.0049)">
      <rect
         style="fill:#ffffff;stroke:none"
         id="rect4466"
         width="4"
         height="12"
         x="143.57127"
         y="959.39801" />
      <rect
         transform="matrix(0,1,-1,0,0,0)"
         y="-155.57127"
         x="959.39801"
         height="12"
         width="4"
         id="rect4468"
         style="fill:#ffffff;stroke:none" />
    </g>
    <g
       id="g4470"
       transform="matrix(0,0.83333333,-0.83333333,0,1048.4983,811.71944)">
      <rect
         style="fill:#ffffff;stroke:none"
         id="rect4472"
         width="4"
         height="12"
         x="143.57127"
         y="959.39801" />
      <rect
         transform="matrix(0,1,-1,0,0,0)"
         y="-155.57127"
         x="959.39801"
         height="12"
         width="4"
         id="rect4474"
         style="fill:#ffffff;stroke:none" />
    </g>
    <g
       transform="matrix(-0.83333333,0,0,-0.83333333,368.64272,1780.8605)"
       id="g4476">
      <rect
         y="959.39801"
         x="143.57127"
         height="12"
         width="4"
         id="rect4478"
         style="fill:#ffffff;stroke:none" />
      <rect
         style="fill:#ffffff;stroke:none"
         id="rect4480"
         width="4"
         height="12"
         x="959.39801"
         y="-155.57127"
         transform="matrix(0,1,-1,0,0,0)" />
    </g>
    <rect
       y="-976.69061"
       x="-248.66666"
       height="40.656891"
       width="2.6666665"
       id="rect4586"
       style="fill:#ffffff;stroke:none;"
       transform="scale(-1,-1)" />
    <rect
       style="fill:#ffffff;stroke:none"
       id="rect4588"
       width="2.6666665"
       height="41.032257"
       x="-981.02887"
       y="203.48386"
       transform="matrix(0,-1,1,0,0,0)" />
    <rect
       y="936.03375"
       x="199.33333"
       height="40.656891"
       width="2.6666665"
       id="rect4596"
       style="fill:#ffffff;stroke:none;" />
    <rect
       style="fill:#ffffff;stroke:none"
       id="rect4598"
       width="2.6666665"
       height="38.78006"
       x="931.6955"
       y="-243.39001"
       transform="matrix(0,1,-1,0,0,0)" />
  </g>
</svg>
