<?xml version="1.0" encoding="UTF-8" standalone="no"?>
<!-- Created with Inkscape (http://www.inkscape.org/) -->

<svg
   xmlns:dc="http://purl.org/dc/elements/1.1/"
   xmlns:cc="http://creativecommons.org/ns#"
   xmlns:rdf="http://www.w3.org/1999/02/22-rdf-syntax-ns#"
   xmlns:svg="http://www.w3.org/2000/svg"
   xmlns="http://www.w3.org/2000/svg"
   xmlns:xlink="http://www.w3.org/1999/xlink"
   xmlns:sodipodi="http://sodipodi.sourceforge.net/DTD/sodipodi-0.dtd"
   xmlns:inkscape="http://www.inkscape.org/namespaces/inkscape"
   width="64"
   height="64"
   id="svg5250"
   version="1.1"
   inkscape:version="0.48.4 r9939"
   sodipodi:docname="icon.svg"
   inkscape:export-filename="C:\Users\user\Documents\repos\local\android\KidsMemory\res\drawable-ldpi\ic_launcher.png"
   inkscape:export-xdpi="50.630001"
   inkscape:export-ydpi="50.630001">
  <defs
     id="defs5252">
    <linearGradient
       inkscape:collect="always"
       id="linearGradient4001">
      <stop
         style="stop-color:#7d7d7d;stop-opacity:1"
         offset="0"
         id="stop4003" />
      <stop
         style="stop-color:#8d8d8d;stop-opacity:0.21276596"
         offset="1"
         id="stop4005" />
    </linearGradient>
    <linearGradient
       id="linearGradient3822">
      <stop
         id="stop3824"
         offset="0"
         style="stop-color:#d4d4d5;stop-opacity:0.44444445" />
      <stop
         id="stop3826"
         offset="1"
         style="stop-color:#8e8c8c;stop-opacity:0" />
    </linearGradient>
    <linearGradient
       id="linearGradient3804">
      <stop
         style="stop-color:#0f1012;stop-opacity:0.81481481"
         offset="0"
         id="stop3806" />
      <stop
         style="stop-color:#2f2f2b;stop-opacity:0.6137566"
         offset="1"
         id="stop3808" />
    </linearGradient>
    <linearGradient
       id="linearGradient3904"
       inkscape:collect="always">
      <stop
         id="stop3906"
         offset="0"
         style="stop-color:#4d4e4d;stop-opacity:0.09139785" />
      <stop
         id="stop3908"
         offset="1"
         style="stop-color:#e0f1e0;stop-opacity:0.41935483" />
    </linearGradient>
    <linearGradient
       inkscape:collect="always"
       id="linearGradient3788">
      <stop
         style="stop-color:#000000;stop-opacity:0.32978722"
         offset="0"
         id="stop3790" />
      <stop
         style="stop-color:#000000;stop-opacity:0.67553192"
         offset="1"
         id="stop3792" />
    </linearGradient>
    <linearGradient
       inkscape:collect="always"
       id="linearGradient3855">
      <stop
         style="stop-color:#4d4e4d;stop-opacity:0.71808511"
         offset="0"
         id="stop3857" />
      <stop
         style="stop-color:#c6e4c6;stop-opacity:0.09042553"
         offset="1"
         id="stop3859" />
    </linearGradient>
    <linearGradient
       inkscape:collect="always"
       xlink:href="#linearGradient3855"
       id="linearGradient3861"
       x1="21.176706"
       y1="990.16138"
       x2="50.148594"
       y2="1033.2136"
       gradientUnits="userSpaceOnUse" />
    <linearGradient
       inkscape:collect="always"
       xlink:href="#linearGradient3855"
       id="linearGradient3867"
       gradientUnits="userSpaceOnUse"
       x1="21.176706"
       y1="990.16138"
       x2="50.148594"
       y2="1033.2136" />
    <linearGradient
       inkscape:collect="always"
       xlink:href="#linearGradient3788"
       id="linearGradient3794"
       x1="10.212852"
       y1="991.22968"
       x2="56.152611"
       y2="1049.4948"
       gradientUnits="userSpaceOnUse" />
    <linearGradient
       inkscape:collect="always"
       xlink:href="#linearGradient3904"
       id="linearGradient3902"
       gradientUnits="userSpaceOnUse"
       x1="20.791164"
       y1="990.67542"
       x2="54.903614"
       y2="1044.0088"
       gradientTransform="translate(1.9636743e-6,-988.61118)" />
    <linearGradient
       inkscape:collect="always"
       xlink:href="#SVGID_68_"
       id="linearGradient54768"
       gradientUnits="userSpaceOnUse"
       x1="121.1489"
       y1="348.00101"
       x2="121.1489"
       y2="320.53909" />
    <linearGradient
       y2="320.53909"
       x2="121.1489"
       y1="348.00101"
       x1="121.1489"
       gradientUnits="userSpaceOnUse"
       id="SVGID_68_">
      <stop
         id="stop4232"
         style="stop-color:#FF964A;stop-opacity:0"
         offset="0" />
      <stop
         id="stop4234"
         style="stop-color:#FF964A"
         offset="1" />
    </linearGradient>
    <linearGradient
       inkscape:collect="always"
       xlink:href="#SVGID_67_"
       id="linearGradient54766"
       gradientUnits="userSpaceOnUse"
       x1="34.049301"
       y1="348.00101"
       x2="34.049301"
       y2="320.53909" />
    <linearGradient
       y2="320.53909"
       x2="34.049301"
       y1="348.00101"
       x1="34.049301"
       gradientUnits="userSpaceOnUse"
       id="SVGID_67_">
      <stop
         id="stop4197"
         style="stop-color:#FF7585;stop-opacity:0"
         offset="0" />
      <stop
         id="stop4199"
         style="stop-color:#FF7585"
         offset="1" />
    </linearGradient>
    <linearGradient
       inkscape:collect="always"
       xlink:href="#SVGID_74_"
       id="linearGradient54770"
       gradientUnits="userSpaceOnUse"
       x1="643.74799"
       y1="348.00101"
       x2="643.74799"
       y2="320.53909" />
    <linearGradient
       y2="320.53909"
       x2="643.74799"
       y1="348.00101"
       x1="643.74799"
       gradientUnits="userSpaceOnUse"
       id="SVGID_74_">
      <stop
         id="stop4442"
         style="stop-color:#E6DEEB;stop-opacity:0"
         offset="0" />
      <stop
         id="stop4444"
         style="stop-color:#E6DEEB"
         offset="1" />
    </linearGradient>
    <linearGradient
       id="linearGradient42547"
       gradientUnits="userSpaceOnUse"
       x1="34.049301"
       y1="348.00101"
       x2="34.049301"
       y2="320.53909">
      <stop
         offset="0"
         style="stop-color:#FF7585;stop-opacity:0"
         id="stop42549" />
      <stop
         offset="1"
         style="stop-color:#FF7585"
         id="stop42551" />
    </linearGradient>
    <linearGradient
       inkscape:collect="always"
       xlink:href="#SVGID_68_-7"
       id="linearGradient54768-1"
       gradientUnits="userSpaceOnUse"
       x1="121.1489"
       y1="348.00101"
       x2="121.1489"
       y2="320.53909" />
    <linearGradient
       y2="320.53909"
       x2="121.1489"
       y1="348.00101"
       x1="121.1489"
       gradientUnits="userSpaceOnUse"
       id="SVGID_68_-7">
      <stop
         id="stop4232-4"
         style="stop-color:#FF964A;stop-opacity:0"
         offset="0" />
      <stop
         id="stop4234-0"
         style="stop-color:#FF964A"
         offset="1" />
    </linearGradient>
    <linearGradient
       inkscape:collect="always"
       xlink:href="#SVGID_67_"
       id="linearGradient3161"
       gradientUnits="userSpaceOnUse"
       gradientTransform="matrix(0.75915182,0,0,0.75915182,-2.2765493,-235.65594)"
       x1="34.049301"
       y1="348.00101"
       x2="34.049301"
       y2="320.53909" />
    <linearGradient
       inkscape:collect="always"
       xlink:href="#SVGID_74_-4"
       id="linearGradient54770-9"
       gradientUnits="userSpaceOnUse"
       x1="643.74799"
       y1="348.00101"
       x2="643.74799"
       y2="320.53909" />
    <linearGradient
       y2="320.53909"
       x2="643.74799"
       y1="348.00101"
       x1="643.74799"
       gradientUnits="userSpaceOnUse"
       id="SVGID_74_-4">
      <stop
         id="stop4442-8"
         style="stop-color:#E6DEEB;stop-opacity:0"
         offset="0" />
      <stop
         id="stop4444-8"
         style="stop-color:#E6DEEB"
         offset="1" />
    </linearGradient>
    <linearGradient
       inkscape:collect="always"
       xlink:href="#SVGID_67_"
       id="linearGradient3212"
       gradientUnits="userSpaceOnUse"
       gradientTransform="matrix(0.75915182,0,0,0.75915182,-2.2765493,-235.65594)"
       x1="34.049301"
       y1="348.00101"
       x2="34.049301"
       y2="320.53909" />
    <linearGradient
       id="linearGradient42568"
       gradientUnits="userSpaceOnUse"
       x1="121.1489"
       y1="348.00101"
       x2="121.1489"
       y2="320.53909">
      <stop
         offset="0"
         style="stop-color:#FF964A;stop-opacity:0"
         id="stop42570" />
      <stop
         offset="1"
         style="stop-color:#FF964A"
         id="stop42572" />
    </linearGradient>
    <linearGradient
       inkscape:collect="always"
       xlink:href="#SVGID_68_-7"
       id="linearGradient3226"
       gradientUnits="userSpaceOnUse"
       x1="121.1489"
       y1="348.00101"
       x2="121.1489"
       y2="320.53909"
       gradientTransform="matrix(0.80241007,0,0,0.80241007,-74.119624,-250.9076)" />
    <radialGradient
       inkscape:collect="always"
       xlink:href="#linearGradient4001"
       id="radialGradient4007"
       cx="-32"
       cy="-32.000004"
       fx="-32"
       fy="-32.000004"
       r="31"
       gradientUnits="userSpaceOnUse" />
  </defs>
  <sodipodi:namedview
     id="base"
     pagecolor="#ffffff"
     bordercolor="#666666"
     borderopacity="1.0"
     inkscape:pageopacity="0.0"
     inkscape:pageshadow="2"
     inkscape:zoom="7.78125"
     inkscape:cx="32"
     inkscape:cy="32"
     inkscape:document-units="px"
     inkscape:current-layer="layer3"
     showgrid="false"
     inkscape:window-width="1366"
     inkscape:window-height="715"
     inkscape:window-x="-8"
     inkscape:window-y="-8"
     inkscape:window-maximized="1" />
  <metadata
     id="metadata5255">
    <rdf:RDF>
      <cc:Work
         rdf:about="">
        <dc:format>image/svg+xml</dc:format>
        <dc:type
           rdf:resource="http://purl.org/dc/dcmitype/StillImage" />
        <dc:title />
      </cc:Work>
    </rdf:RDF>
  </metadata>
  <g
     inkscape:groupmode="layer"
     id="layer3"
     inkscape:label="bottom"
     style="display:inline">
    <rect
       style="fill:#87cdde;fill-opacity:1;stroke:none"
       id="rect3818"
       width="62"
       height="62"
       x="1"
       y="1.0000026"
       rx="4.9511428"
       ry="4.9511428" />
    <rect
       style="fill:url(#radialGradient4007);fill-opacity:1;stroke:none"
       id="rect6604"
       width="62"
       height="62"
       x="-63"
       y="-63.000004"
       rx="4.9511428"
       ry="4.9511428"
       transform="scale(-1,-1)" />
    <g
       id="g4221"
       transform="matrix(0.80241007,0,0,0.80241007,-74.119624,-250.9076)">
      <path
         d="m 160.312,382.119 c 8.82,-7.694 9.295,-20.612 1.06,-28.847 -1.261,-1.261 -2.668,-2.31 -4.131,-3.191 -4.336,-2.617 -9.469,-5.103 -13.433,-9.066 -3.957,-3.957 -6.444,-9.083 -9.053,-13.409 -0.885,-1.469 -1.938,-2.888 -3.205,-4.156 -8.235,-8.234 -21.15,-7.76 -28.847,1.061 -0.269,0.309 -0.512,0.64 -0.607,0.756 -11.428,13.921 -0.487,35.683 10.646,46.815 11.13,11.13 32.893,22.077 46.813,10.645 0.115,-0.097 0.448,-0.338 0.757,-0.608 z"
         id="path4223"
         inkscape:connector-curvature="0"
         style="fill:#ff964a" />
    </g>
    <g
       id="g4225"
       transform="matrix(0.80241007,0,0,0.80241007,-74.119624,-250.9076)">
      <path
         d="m 156.303,377.9 c 7.561,-6.601 7.967,-17.673 0.909,-24.726 -1.08,-1.085 -2.287,-1.979 -3.541,-2.742 -3.716,-2.236 -8.117,-4.37 -11.514,-7.768 -3.391,-3.391 -5.526,-7.784 -7.759,-11.494 -0.758,-1.26 -1.664,-2.474 -2.749,-3.562 -7.061,-7.058 -18.13,-6.652 -24.728,0.909 -0.231,0.265 -0.439,0.547 -0.521,0.648 -9.793,11.934 -0.417,30.584 9.127,40.131 9.539,9.538 28.192,18.923 40.124,9.121 0.103,-0.084 0.387,-0.286 0.652,-0.517 z"
         id="path4227"
         inkscape:connector-curvature="0"
         style="fill:#ff5e42" />
    </g>
    <path
       d="M 42.984102,41.275584 C 34.692798,42.613201 25.063878,42.613201 15.434957,36.996331 6.4535808,31.757395 2.15507,18.430969 9.7121681,8.0509923 9.2194883,8.4963298 8.7412519,8.9657397 8.2902974,9.4824918 8.0744491,9.7304365 7.8794635,9.9960343 7.8032345,10.089114 c -9.1699423,11.17035 -0.3907737,28.632398 8.5424575,37.564827 8.930824,8.930824 26.393675,17.714807 37.563223,8.541655 0.09308,-0.07703 0.400402,-0.231896 0.607424,-0.48626 9.058407,-11.10696 -1.656174,-16.027339 -11.532237,-14.433752 z"
       id="path4229"
       inkscape:connector-curvature="0"
       style="opacity:0.5;fill:#f0403b" />
    <path
       d="m 12.074463,17.314817 c 1.629695,6.083873 7.884482,11.01709 13.967552,11.01709 6.087083,0 9.697126,-4.933217 8.065826,-11.01709 C 32.478147,11.230141 26.224965,6.2969238 20.138685,6.2969238 14.054009,6.2961214 10.443966,11.230141 12.074463,17.314817 z"
       id="path4236"
       style="fill:url(#linearGradient3226)"
       inkscape:connector-curvature="0" />
    <path
       d="m 54.516339,54.103713 c -0.247945,0.216651 -0.514345,0.410032 -0.607424,0.486261 C 42.738564,63.763928 25.276516,54.979143 16.345692,46.048319 10.259412,39.962038 4.2493603,29.916667 3.9348156,20.599883 3.552066,30.349166 9.9079561,41.215403 16.345692,47.653139 c 8.930824,8.930824 26.393675,17.714807 37.563223,8.541655 0.09308,-0.07703 0.360282,-0.270412 0.607424,-0.48626 3.926995,-3.426291 5.783772,-8.142055 5.537432,-12.790417 -0.211836,4.111549 -2.062194,8.154091 -5.537432,11.185596 z"
       id="path4238"
       inkscape:connector-curvature="0"
       style="fill:#87cdde" />
    <g
       id="g4240"
       transform="matrix(0.80241007,0,0,0.80241007,-74.119624,-250.9076)">
      <g
         id="g4242">
        <path
           d="m 113.47,322.97 c 2.64,-1.415 5.871,-1.476 8.828,-0.547 2.99,0.926 5.607,3.051 7.375,5.592 0.438,0.646 0.84,1.288 1.194,1.989 l 0.479,0.978 0.43,1.014 c 0.562,1.355 0.987,2.758 1.318,4.156 0.337,1.396 0.579,2.788 0.81,4.139 0.22,1.354 0.457,2.664 0.849,3.87 0.372,1.214 0.964,2.295 1.822,3.149 0.866,0.842 1.979,1.473 3.203,1.863 2.549,0.782 5.265,1.501 7.877,2.479 2.596,0.991 5.303,2.244 7.381,4.537 1.024,1.128 1.861,2.49 2.212,3.956 0.355,1.46 0.348,2.948 -0.101,4.376 -1.513,-2.575 -2.388,-4.783 -4.043,-6.542 -1.677,-1.725 -3.977,-2.997 -6.373,-4.134 -2.424,-1.142 -4.917,-2.085 -7.559,-2.991 -1.34,-0.525 -2.699,-1.188 -3.833,-2.218 -1.16,-1 -2.002,-2.322 -2.65,-3.632 -1.222,-2.67 -2.04,-5.275 -3.144,-7.646 -0.545,-1.188 -1.144,-2.322 -1.772,-3.424 l -0.493,-0.813 -0.505,-0.818 c -0.321,-0.485 -0.654,-0.996 -1.016,-1.456 -2.858,-3.766 -6.732,-6.106 -12.289,-7.877 z"
           id="path4244"
           inkscape:connector-curvature="0"
           style="fill:#ffbd78" />
      </g>
    </g>
    <g
       id="g4246"
       transform="matrix(0.80241007,0,0,0.80241007,-74.119624,-250.9076)">
      <path
         d="m 122.799,327.632 c 0.489,1.827 2.368,3.309 4.194,3.309 1.828,0 2.912,-1.481 2.422,-3.309 -0.489,-1.827 -2.367,-3.309 -4.195,-3.309 -1.827,0 -2.911,1.482 -2.421,3.309 z"
         id="path4248"
         inkscape:connector-curvature="0"
         style="fill:#ffffff" />
    </g>
    <g
       id="g4250"
       transform="matrix(0.80241007,0,0,0.80241007,-74.119624,-250.9076)">
      <path
         d="m 150.381,355.799 c 0.305,1.138 1.474,2.06 2.611,2.06 1.138,0 1.812,-0.922 1.507,-2.06 -0.305,-1.138 -1.474,-2.06 -2.611,-2.06 -1.137,0 -1.812,0.922 -1.507,2.06 z"
         id="path4252"
         inkscape:connector-curvature="0"
         style="fill:#ffffff" />
    </g>
  </g>
  <g
     inkscape:groupmode="layer"
     id="layer4"
     inkscape:label="border"
     style="display:inline" />
  <g
     inkscape:groupmode="layer"
     id="layer5"
     inkscape:label="dots_shadow"
     style="display:inline" />
  <g
     inkscape:label="dots"
     inkscape:groupmode="layer"
     id="layer1"
     transform="translate(0,-988.36218)"
     style="display:inline">
    <path
       inkscape:connector-curvature="0"
       style="fill:none;stroke:none"
       d="m 1,998.31123 0,-3.9979 c 0,-2.74294 2.2082097,-4.95115 4.9511428,-4.95115 l 0,0 0,0 52.0977142,0 c 2.742933,0 4.951143,2.20821 4.951143,4.95115 l 0,3.9979"
       id="path7387" />
    <path
       inkscape:connector-curvature="0"
       style="fill:none;stroke:none"
       d="m 63,1046.411 c 0,2.743 -2.20821,4.9512 -4.951143,4.9512 l -52.0977142,0 C 3.2082097,1051.3622 1,1049.154 1,1046.411"
       id="path7383" />
  </g>
  <g
     inkscape:groupmode="layer"
     id="layer2"
     inkscape:label="top glas"
     style="display:inline" />
</svg>
